# xmcd
#
# Track frame offsets:
#	150
#	13757
#	27977
#	38867
#	52948
#	60881
#	75711
#	90564
#	103037
#	117735
#	133799
#	146107
#	160997
#	166427
#
# Disc length: 2535 seconds
#
# Revision: 1
# Processed by: cddbd v1.5.2PL0 Copyright (c) Steve Scherf et al.
# Submitted via: audiograbber 1.83.01
#
DISCID=ba09e50e
DTITLE=Dolly Parton - Best Love Songs
DYEAR=1991
DGENRE=Country
TTITLE0=Here You Come Again
TTITLE1=I Will Always Love You (1982)
TTITLE2=Love Is Like A Butterfly
TTITLE3=I Realy Don't Want To Know
TTITLE4=You're The Only One
TTITLE5=Almost in Love
TTITLE6=Sweet Summer Lovin'
TTITLE7=D.I.V.O.R.C.E
TTITLE8=We Used To
TTITLE9=Heartbreaker
TTITLE10=Jolene
TTITLE11=It's All Wrong, But It's All Right
TTITLE12=Send Me The Pillow That You Dream On
TTITLE13=You Are
EXTD=
EXTT0=
EXTT1=
EXTT2=
EXTT3=
EXTT4=
EXTT5=
EXTT6=
EXTT7=
EXTT8=
EXTT9=
EXTT10=
EXTT11=
EXTT12=
EXTT13=
PLAYORDER=
